<svg width="300" height="129" viewBox="0 0 300 129" fill="none" xmlns="http://www.w3.org/2000/svg">
<g clip-path="url(#clip0_976_12902)">
<ellipse cx="192" cy="112.25" rx="43" ry="5.25" fill="#D7D0CC"/>
<ellipse cx="119.5" cy="112.25" rx="18" ry="5.25" fill="#D7D0CC"/>
<path d="M215.396 85.3968C186.069 114.138 161.536 125.526 144.799 109.888C130.73 96.7422 139.527 64.4643 164.447 37.7929C189.368 11.1214 220.975 0.156506 235.044 13.302C249.113 26.4474 240.316 58.7254 215.396 85.3968Z" fill="#F1EAE6"/>
<circle cx="96.7374" cy="72.9249" r="35.2374" fill="#F1EAE6"/>
<ellipse cx="105.272" cy="78.5208" rx="2.25" ry="4" transform="rotate(39.2767 105.272 78.5208)" fill="#C1BBB7"/>
<path d="M94.5616 67.5515L104.133 62.3536" stroke="#D7D0CC" stroke-width="1.5"/>
<path d="M101.966 69.7277L96.7298 60.1775" stroke="#D7D0CC" stroke-width="1.5"/>
<path d="M115.987 72.7811L125.559 67.5832" stroke="#D7D0CC" stroke-width="1.5"/>
<path d="M123.392 74.9573L118.156 65.4071" stroke="#D7D0CC" stroke-width="1.5"/>
<path d="M193.5 24.2533L204.25 22.5033" stroke="#D7D0CC" stroke-width="1.5"/>
<path d="M199.773 28.7497L197.98 18.0068" stroke="#D7D0CC" stroke-width="1.5"/>
<path d="M212 36.2567L222.75 34.5067" stroke="#D7D0CC" stroke-width="1.5"/>
<path d="M218.273 40.7531L216.48 30.0102" stroke="#D7D0CC" stroke-width="1.5"/>
<ellipse cx="198.776" cy="39.0208" rx="2.25" ry="4" transform="rotate(39.2767 198.776 39.0208)" fill="#C1BBB7"/>
</g>
<defs>
<clipPath id="clip0_976_12902">
<rect width="300" height="128" fill="white" transform="translate(0 0.5)"/>
</clipPath>
</defs>
</svg>
