<svg width="116" height="36" viewBox="0 0 116 36" fill="none" xmlns="http://www.w3.org/2000/svg">
<g id="Group 51">
<g id="itching">
<path id="Vector" d="M109.846 23.29C111.006 23.8236 111.9 24.5661 112.526 25.5174C113.176 26.4454 113.501 27.5243 113.501 28.754C113.501 30.1926 113.106 31.4571 112.317 32.5476C111.529 33.6613 110.415 34.5081 108.976 35.0882C107.538 35.6914 105.867 35.9931 103.965 35.9931C102.109 35.9931 100.484 35.6914 99.0923 35.0882C97.7001 34.4849 96.6212 33.6265 95.8556 32.5128C95.1131 31.3991 94.7419 30.1113 94.7419 28.6496C94.7419 28.2784 94.7535 28 94.7767 27.8144H100.032C99.9855 28.9512 100.299 29.8329 100.972 30.4594C101.668 31.0858 102.665 31.3991 103.965 31.3991C105.125 31.3991 106.064 31.1322 106.784 30.5986C107.503 30.0881 107.863 29.4037 107.863 28.5452C107.863 27.6635 107.526 26.9791 106.853 26.4918C106.204 26.0278 105.264 25.7958 104.034 25.7958C102.132 25.7958 100.461 25.4361 99.0227 24.7169C97.6073 23.9976 96.5052 22.9883 95.7164 21.689C94.9507 20.3665 94.5679 18.8352 94.5679 17.095C94.5679 15.4245 94.9623 13.9395 95.7512 12.6402C96.5632 11.3177 97.6769 10.2968 99.0923 9.57756C100.531 8.8351 102.167 8.46387 103.999 8.46387C105.415 8.46387 106.714 8.74229 107.897 9.29914L111.621 12.3618C112.781 13.6843 113.362 15.2621 113.362 17.095C113.362 18.3711 113.048 19.5544 112.422 20.6449C111.819 21.7122 110.96 22.5939 109.846 23.29ZM103.999 21.167C105.206 21.167 106.18 20.7957 106.923 20.0533C107.665 19.3108 108.037 18.3247 108.037 17.095C108.037 15.8653 107.665 14.8908 106.923 14.1716C106.204 13.4291 105.229 13.0579 103.999 13.0579C102.793 13.0579 101.818 13.4291 101.076 14.1716C100.334 14.8908 99.9623 15.8653 99.9623 17.095C99.9623 18.3015 100.334 19.2876 101.076 20.0533C101.818 20.7957 102.793 21.167 103.999 21.167Z" fill="#131115"/>
<path id="Vector_2" d="M84.6437 8.5332C86.7783 8.5332 88.4721 9.22926 89.725 10.6214C91.0011 12.0135 91.6391 13.9393 91.6391 16.3987V26.1087H86.1751V16.7119C86.1751 15.5982 85.8966 14.7281 85.3398 14.1017C84.7829 13.4752 84.0173 13.162 83.0428 13.162C81.9755 13.162 81.117 13.5216 80.4674 14.2409C79.8177 14.9602 79.4929 15.8998 79.4929 17.0599V26.1087H74.0288V8.91604H78.762L79.1101 10.9346C79.7829 10.1689 80.5834 9.57729 81.5115 9.15966C82.4627 8.74202 83.5068 8.5332 84.6437 8.5332Z" fill="#131115"/>
<path id="Vector_3" d="M64.4443 8.91602H69.9084V26.1087H64.4443V8.91602Z" fill="#131115"/>
<path id="Vector_4" d="M53.6495 8.53366C55.7609 8.53366 57.4314 9.24132 58.6611 10.6566C59.9141 12.072 60.5405 13.9861 60.5405 16.3991V26.1092H55.0764V16.7124C55.0764 15.5987 54.798 14.7286 54.2412 14.1021C53.7075 13.4757 52.9534 13.1625 51.979 13.1625C50.9117 13.1625 50.0416 13.5221 49.3687 14.2414C48.7191 14.9606 48.3943 15.9003 48.3943 17.0604V26.1092H42.9302V1.74707H48.3943V10.7959C49.7168 9.28773 51.4685 8.53366 53.6495 8.53366Z" fill="#131115"/>
<path id="Vector_5" d="M33.4436 26.4916C31.5178 26.4916 29.8357 26.1319 28.3972 25.4127C26.9818 24.6702 25.8798 23.6261 25.0909 22.2804C24.3252 20.9347 23.9424 19.3569 23.9424 17.5472C23.9424 15.7606 24.3368 14.1945 25.1257 12.8488C25.9146 11.4799 27.0167 10.4242 28.432 9.6817C29.8473 8.91604 31.483 8.5332 33.3392 8.5332C34.6153 8.5332 35.8334 8.76522 36.9935 9.22926C38.1536 9.6701 39.1861 10.3314 40.091 11.213L37.0631 14.5193C36.0886 13.6144 34.9401 13.162 33.6176 13.162C32.3647 13.162 31.3438 13.568 30.555 14.3801C29.7661 15.169 29.3717 16.2131 29.3717 17.5124C29.3717 18.8117 29.7545 19.8674 30.5202 20.6795C31.309 21.4683 32.3415 21.8628 33.6176 21.8628C35.0329 21.8628 36.2395 21.3639 37.2371 20.3662L40.3346 23.6377C38.4088 25.5403 36.1118 26.4916 33.4436 26.4916Z" fill="#131115"/>
<path id="Vector_6" d="M22.5883 25.4479C21.2426 26.1207 19.7229 26.4572 18.0291 26.4572C16.1498 26.4572 14.6648 25.9351 13.5743 24.891C12.4838 23.8237 11.9386 22.1184 11.9386 19.775V13.2668H9.01514V8.91642H11.9386L17.3679 8.91602V8.91642H21.6486V13.2668H17.3679V19.775C17.3679 20.471 17.5419 20.9931 17.8899 21.3411C18.2379 21.6659 18.7136 21.8283 19.3168 21.8283C19.9897 21.8283 20.6509 21.6659 21.3006 21.3411L22.5883 25.4479Z" fill="#131115"/>
<path id="Vector_7" d="M0.684082 8.91602H6.14816V26.1087H0.684082V8.91602Z" fill="#131115"/>
</g>
<path id="Ellipse 219" d="M17.9353 8.30806C16.333 12.2427 14.6916 14.403 13.0152 13.7843C11.606 13.2643 11.5241 9.96926 12.8322 6.42475C14.1403 2.88023 16.3431 0.428429 17.7523 0.94849C19.1614 1.46855 19.2434 4.76354 17.9353 8.30806Z" fill="#131115"/>
<path id="Ellipse 220" d="M112.948 8.30805C111.345 12.2427 109.937 13.5026 108.261 12.884C106.851 12.3639 106.536 9.96926 107.844 6.42475C109.152 2.88023 111.355 0.428429 112.764 0.94849C114.174 1.46855 114.256 4.76354 112.948 8.30805Z" fill="#131115"/>
</g>
</svg>
