<svg width="160" height="160" viewBox="0 0 160 160" fill="none" xmlns="http://www.w3.org/2000/svg">
<path fill-rule="evenodd" clip-rule="evenodd" d="M58.99 106.837C44.5639 136.657 31.1074 149.486 18.0564 144.572C4.101 139.317 3.83325 106.275 17.0745 70.3958C30.3158 34.5163 50.9894 9.0984 66.0073 14.6407C75.7752 18.2455 77.9673 36.1974 74.3228 58.9621L74.3684 58.9772C72.7684 69.7772 73.1309 73.3831 74.5595 75.3831C76.5595 78.1831 79.7261 78.8831 81.0595 78.8831C87.4595 78.4831 93.3211 71.5791 95.0858 67.6804L95.563 66.7128C103.581 49.5647 124.866 9.53167 142.398 15.593C156.284 20.3936 155.49 53.8825 143.38 89.769C126.49 134.882 107.49 149.382 94.4473 145.524C82.1701 141.892 81.1404 120.973 86.8759 94.9666C87.9236 87.6124 86.1919 84.3268 85.0595 83.3831C82.6595 81.3831 79.6223 81.0705 77.5595 81.3831C70.5359 82.4477 64.1237 96.084 60.1284 104.58C59.7455 105.395 59.3847 106.162 59.0478 106.866L58.99 106.837Z" fill="url(#paint0_linear_1021_14199)"/>
<defs>
<linearGradient id="paint0_linear_1021_14199" x1="79.9995" y1="13.8812" x2="79.9995" y2="146.119" gradientUnits="userSpaceOnUse">
<stop offset="0.205" stop-color="#FD8B3E"/>
<stop offset="0.45" stop-color="#FF852F"/>
<stop offset="1" stop-color="#E9A353"/>
</linearGradient>
</defs>
</svg>
