<svg width="185" height="130" viewBox="0 0 185 130" fill="none" xmlns="http://www.w3.org/2000/svg">
<rect x="19.6226" width="168" height="97.3913" rx="4.86957" transform="rotate(11.6236 19.6226 0)" fill="#FFF3EC"/>
<path d="M89.6515 73.2511C90.1365 73.7167 90.9071 73.701 91.3727 73.216C91.8384 72.7309 91.8226 71.9603 91.3376 71.4947L89.6515 73.2511ZM91.3376 71.4947L25.4299 8.22226L23.7437 9.97867L89.6515 73.2511L91.3376 71.4947Z" fill="#FFE8D8"/>
<path d="M175.597 39.1116C176.226 38.8752 176.928 39.1938 177.165 39.8232C177.401 40.4526 177.082 41.1545 176.453 41.3909L175.597 39.1116ZM90.0665 71.2332L175.597 39.1116L176.453 41.3909L90.9226 73.5125L90.0665 71.2332Z" fill="#FFE8D8"/>
<g clip-path="url(#clip0_976_11826)">
<path d="M74.9327 94.0534C75.4809 94.4565 75.8674 94.9399 76.0923 95.5037C76.3317 96.0579 76.3854 96.6559 76.2534 97.2978C76.099 98.0486 75.7573 98.6663 75.2285 99.1508C74.6971 99.6474 74.0249 99.9699 73.2118 100.118C72.3961 100.279 71.4918 100.257 70.4987 100.052C69.5299 99.8531 68.7145 99.5213 68.0527 99.057C67.3908 98.5926 66.9198 98.0287 66.6397 97.3652C66.3718 96.7042 66.3163 95.9922 66.4732 95.2292C66.5131 95.0354 66.549 94.8913 66.5811 94.797L69.3241 95.3612C69.1778 95.9496 69.2467 96.4435 69.5306 96.8427C69.8267 97.2444 70.3138 97.515 70.992 97.6545C71.5975 97.7791 72.1166 97.7407 72.5493 97.5394C72.9796 97.3502 73.2408 97.0315 73.333 96.5834C73.4276 96.1232 73.3255 95.7299 73.0266 95.4033C72.7373 95.0913 72.2718 94.8693 71.6299 94.7373C70.6368 94.533 69.8035 94.1659 69.1299 93.6361C68.4683 93.1087 68.0015 92.4635 67.7292 91.7007C67.4715 90.9281 67.4361 90.0877 67.623 89.1794C67.8023 88.3075 68.1677 87.5748 68.7189 86.9813C69.2848 86.3782 69.9757 85.9649 70.7917 85.7414C71.6222 85.5083 72.5159 85.4902 73.4726 85.687C74.2114 85.8389 74.8597 86.1238 75.4175 86.5415L77.0324 88.5399C77.496 89.3547 77.6293 90.2405 77.4325 91.1973C77.2955 91.8634 77.005 92.4474 76.5609 92.9493C76.1314 93.4416 75.5887 93.8096 74.9327 94.0534ZM72.1087 92.3175C72.7385 92.447 73.287 92.3579 73.7542 92.0501C74.2215 91.7423 74.5211 91.2674 74.6532 90.6256C74.7852 89.9837 74.6961 89.4352 74.3857 88.98C74.09 88.5153 73.6212 88.2169 72.9794 88.0849C72.3496 87.9553 71.8011 88.0445 71.3339 88.3523C70.8691 88.648 70.5707 89.1168 70.4387 89.7586C70.3091 90.3884 70.397 90.9429 70.7024 91.4223C71.0102 91.8896 71.479 92.188 72.1087 92.3175Z" fill="#FEB98B"/>
<path d="M63.3619 83.6451C64.4761 83.8743 65.2854 84.4194 65.7899 85.2806C66.3066 86.1442 66.4328 87.2179 66.1688 88.5016L65.1262 93.5699L62.2742 92.9832L63.2831 88.0785C63.4027 87.4972 63.3508 87.0131 63.1274 86.6263C62.904 86.2396 62.538 85.9939 62.0293 85.8892C61.4722 85.7746 60.9855 85.8702 60.5692 86.1759C60.1529 86.4815 59.8825 86.9371 59.7579 87.5427L58.7864 92.2658L55.9343 91.6791L57.7802 82.7052L60.2508 83.2134L60.2157 84.3044C60.6491 83.977 61.1305 83.7541 61.6598 83.6357C62.2011 83.5199 62.7685 83.523 63.3619 83.6451Z" fill="#FEB98B"/>
<path d="M52.7776 81.676L55.6296 82.2627L53.7837 91.2366L50.9317 90.65L52.7776 81.676Z" fill="#FEB98B"/>
<path d="M47.1842 80.3173C48.2863 80.544 49.0823 81.0927 49.5722 81.9635C50.0742 82.8367 50.1957 83.9031 49.9366 85.1626L48.894 90.2309L46.042 89.6442L47.0509 84.7395C47.1705 84.1581 47.1186 83.6741 46.8952 83.2873C46.6839 82.9031 46.3239 82.6586 45.8153 82.554C45.2582 82.4394 44.7654 82.5337 44.337 82.8369C43.9207 83.1425 43.6503 83.5981 43.5257 84.2037L42.5542 88.9268L39.7021 88.3401L42.3178 75.624L45.1699 76.2107L44.1983 80.9338C45.0505 80.2886 46.0458 80.0831 47.1842 80.3173Z" fill="#FEB98B"/>
<path d="M34.7094 87.5214C33.7042 87.3146 32.8648 86.9463 32.1912 86.4164C31.5322 85.8769 31.069 85.2136 30.8018 84.4265C30.5466 83.6419 30.5162 82.7773 30.7105 81.8326C30.9023 80.9001 31.2763 80.125 31.8326 79.5073C32.3913 78.8775 33.0799 78.4448 33.8984 78.2092C34.7193 77.9615 35.6142 77.9373 36.5831 78.1366C37.2491 78.2736 37.86 78.5255 38.4157 78.8923C38.9739 79.2469 39.4419 79.7029 39.8195 80.2603L37.8841 81.661C37.4726 81.084 36.9217 80.7245 36.2314 80.5826C35.5774 80.448 35.001 80.5504 34.502 80.8895C34.0056 81.2166 33.6876 81.7192 33.5481 82.3974C33.4086 83.0756 33.4951 83.6677 33.8075 84.1738C34.1346 84.6703 34.6311 84.987 35.2972 85.124C36.036 85.276 36.7193 85.1451 37.3472 84.7315L38.6127 86.7717C37.4032 87.558 36.1021 87.8079 34.7094 87.5214Z" fill="#FEB98B"/>
<path d="M29.1556 85.8109C28.381 86.0176 27.5516 86.0301 26.6676 85.8482C25.6866 85.6464 24.9676 85.2145 24.5105 84.5525C24.0559 83.8783 23.9544 82.9296 24.206 81.7065L24.9047 78.3094L23.3788 77.9956L23.8459 75.7248L25.3718 76.0387L28.2058 76.6214L28.2057 76.6216L30.4401 77.0812L29.973 79.352L27.7386 78.8924L27.0399 82.2894C26.9651 82.6527 26.9999 82.9439 27.1442 83.1629C27.291 83.3698 27.5218 83.5057 27.8367 83.5704C28.1879 83.6427 28.5505 83.6289 28.9244 83.5291L29.1556 85.8109Z" fill="#FEB98B"/>
<path d="M19.4971 74.8303L22.3492 75.417L20.5032 84.3909L17.6512 83.8043L19.4971 74.8303Z" fill="#FEB98B"/>
<path d="M28.567 76.3651C27.3082 78.2468 26.2195 79.1981 25.4109 78.6952C24.7312 78.2724 25.0422 76.5438 26.1055 74.8341C27.1689 73.1245 28.5819 72.0812 29.2616 72.504C29.9413 72.9267 29.6303 74.6554 28.567 76.3651Z" fill="#FEB98B"/>
<path d="M78.1597 86.5662C76.901 88.4479 76.0307 88.9544 75.2221 88.4515C74.5424 88.0287 74.635 86.745 75.6983 85.0353C76.7616 83.3256 78.1747 82.2824 78.8544 82.7052C79.5341 83.1279 79.2231 84.8566 78.1597 86.5662Z" fill="#FEB98B"/>
</g>
<defs>
<clipPath id="clip0_976_11826">
<rect width="66.7663" height="23.7391" fill="white" transform="translate(18.1772 67.4395) rotate(11.6236)"/>
</clipPath>
</defs>
</svg>
