<svg width="298" height="200" viewBox="0 0 298 200" fill="none" xmlns="http://www.w3.org/2000/svg">
<rect width="298" height="200" rx="8" fill="#FBF3FB"/>
<g clip-path="url(#clip0_997_12089)">
<circle cx="149" cy="100" r="57.5" fill="#F6E6F6"/>
<path d="M179.062 123.485C180.68 124.229 181.925 125.265 182.799 126.591C183.704 127.885 184.157 129.389 184.157 131.103C184.157 133.109 183.607 134.872 182.508 136.393C181.408 137.945 179.855 139.126 177.849 139.935C175.844 140.776 173.515 141.196 170.862 141.196C168.274 141.196 166.01 140.776 164.069 139.935C162.128 139.094 160.624 137.897 159.556 136.344C158.521 134.791 158.003 132.996 158.003 130.958C158.003 130.44 158.02 130.052 158.052 129.793H165.379C165.314 131.378 165.751 132.608 166.689 133.481C167.659 134.355 169.05 134.791 170.862 134.791C172.479 134.791 173.79 134.419 174.792 133.675C175.795 132.964 176.297 132.009 176.297 130.812C176.297 129.583 175.828 128.629 174.889 127.949C173.984 127.302 172.674 126.979 170.959 126.979C168.306 126.979 165.977 126.478 163.972 125.475C161.998 124.472 160.462 123.065 159.362 121.253C158.294 119.409 157.761 117.274 157.761 114.848C157.761 112.519 158.311 110.449 159.411 108.637C160.543 106.793 162.095 105.37 164.069 104.367C166.074 103.332 168.355 102.814 170.911 102.814C172.884 102.814 174.695 103.203 176.345 103.979L181.537 108.249C183.155 110.093 183.963 112.293 183.963 114.848C183.963 116.627 183.527 118.277 182.653 119.798C181.812 121.286 180.615 122.515 179.062 123.485ZM170.911 120.525C172.593 120.525 173.951 120.008 174.986 118.973C176.022 117.938 176.539 116.563 176.539 114.848C176.539 113.134 176.022 111.775 174.986 110.772C173.984 109.737 172.625 109.22 170.911 109.22C169.228 109.22 167.87 109.737 166.835 110.772C165.799 111.775 165.282 113.134 165.282 114.848C165.282 116.53 165.799 117.905 166.835 118.973C167.87 120.008 169.228 120.525 170.911 120.525Z" fill="white"/>
<path d="M143.924 102.911C146.9 102.911 149.262 103.882 151.008 105.823C152.788 107.763 153.677 110.448 153.677 113.877V127.415H146.059V114.314C146.059 112.761 145.671 111.548 144.895 110.675C144.118 109.801 143.051 109.365 141.692 109.365C140.204 109.365 139.007 109.866 138.101 110.869C137.196 111.872 136.743 113.182 136.743 114.799V127.415H129.125V103.445H135.724L136.209 106.259C137.147 105.192 138.263 104.367 139.557 103.785C140.883 103.202 142.339 102.911 143.924 102.911Z" fill="white"/>
<path d="M115.762 103.444H123.38V127.415H115.762V103.444Z" fill="white"/>
<path d="M181.359 74.2823C184.302 74.2823 186.632 75.269 188.346 77.2423C190.093 79.2155 190.966 81.8843 190.966 85.2486V98.7866H183.348V85.6853C183.348 84.1326 182.96 82.9195 182.184 82.0461C181.44 81.1726 180.388 80.7359 179.03 80.7359C177.542 80.7359 176.328 81.2373 175.39 82.2401C174.485 83.243 174.032 84.5531 174.032 86.1705V98.7866H166.414V64.8203H174.032V77.4363C175.876 75.3337 178.318 74.2823 181.359 74.2823Z" fill="white"/>
<path d="M153.187 99.3202C150.502 99.3202 148.157 98.8188 146.151 97.816C144.178 96.7808 142.642 95.3251 141.542 93.4489C140.474 91.5727 139.94 89.3729 139.94 86.8497C139.94 84.3589 140.49 82.1753 141.59 80.2991C142.69 78.3905 144.227 76.9187 146.2 75.8835C148.173 74.816 150.454 74.2822 153.042 74.2822C154.821 74.2822 156.519 74.6057 158.137 75.2527C159.754 75.8673 161.194 76.7893 162.455 78.0185L158.234 82.6282C156.875 81.3666 155.274 80.7358 153.43 80.7358C151.683 80.7358 150.26 81.3019 149.16 82.4341C148.06 83.534 147.51 84.9897 147.51 86.8012C147.51 88.6127 148.044 90.0846 149.111 91.2168C150.211 92.3167 151.651 92.8666 153.43 92.8666C155.403 92.8666 157.085 92.1711 158.476 90.7801L162.795 95.3413C160.11 97.9939 156.907 99.3202 153.187 99.3202Z" fill="white"/>
<path d="M138.053 97.8645C136.177 98.8026 134.058 99.2717 131.696 99.2717C129.076 99.2717 127.006 98.5439 125.485 97.0882C123.965 95.6001 123.205 93.2225 123.205 89.9552V80.8814H119.129V74.816H123.205L130.774 74.8154V74.816H136.743V80.8814H130.774V89.9552C130.774 90.9257 131.017 91.6536 131.502 92.1388C131.988 92.5917 132.651 92.8181 133.492 92.8181C134.43 92.8181 135.352 92.5917 136.258 92.1388L138.053 97.8645Z" fill="white"/>
<path d="M107.513 74.8164H115.131V98.7869H107.513V74.8164Z" fill="white"/>
<path d="M131.565 73.9683C129.331 79.4541 127.042 82.466 124.705 81.6034C122.74 80.8783 122.626 76.2844 124.45 71.3425C126.273 66.4007 129.345 62.9823 131.309 63.7074C133.274 64.4325 133.388 69.0264 131.565 73.9683Z" fill="white"/>
<path d="M183.386 102.597C181.152 108.083 179.189 109.84 176.851 108.977C174.887 108.252 174.447 104.913 176.271 99.9714C178.095 95.0296 181.166 91.6112 183.131 92.3363C185.095 93.0614 185.21 97.6553 183.386 102.597Z" fill="white"/>
</g>
<defs>
<clipPath id="clip0_997_12089">
<rect width="115" height="115" fill="white" transform="translate(91.5 42.5)"/>
</clipPath>
</defs>
</svg>
