<svg width="146" height="133" viewBox="0 0 146 133" fill="none" xmlns="http://www.w3.org/2000/svg">
<path fill-rule="evenodd" clip-rule="evenodd" d="M51.6287 92.9562C37.2026 122.776 23.7461 135.605 10.6951 130.691C-3.26032 125.436 -3.52808 92.394 9.7132 56.5146C22.9545 20.6351 43.6281 -4.78282 58.646 0.759513C68.4138 4.36432 70.606 22.3162 66.9615 45.0809L67.007 45.096C65.407 55.896 65.7696 59.5019 67.1982 61.5019C69.1982 64.3019 72.3648 65.0019 73.6982 65.0019C80.0982 64.6019 85.9598 57.6978 87.7245 53.7992L88.2016 52.8315C96.2192 35.6835 117.505 -4.34955 135.037 1.71174C148.923 6.5124 148.128 40.0013 136.019 75.8877C119.128 121.001 100.128 135.501 87.0859 131.643C74.8087 128.011 73.7791 107.092 79.5145 81.0854C80.5623 73.7311 78.8306 70.4456 77.6982 69.5019C75.2981 67.5019 72.261 67.1893 70.1982 67.5019C63.1746 68.5665 56.7623 82.2028 52.7671 90.6991C52.3841 91.5135 52.0234 92.2806 51.6864 92.985L51.6287 92.9562Z" fill="url(#paint0_linear_1103_9627)"/>
<defs>
<linearGradient id="paint0_linear_1103_9627" x1="72.6382" y1="0" x2="72.6382" y2="132.238" gradientUnits="userSpaceOnUse">
<stop offset="0.205" stop-color="#FD8B3E"/>
<stop offset="0.45" stop-color="#FF852F"/>
<stop offset="1" stop-color="#E9A353"/>
</linearGradient>
</defs>
</svg>
