<svg width="22" height="21" viewBox="0 0 22 21" fill="none" xmlns="http://www.w3.org/2000/svg">
<g id="&#8;symbol">
<path id="Union" fill-rule="evenodd" clip-rule="evenodd" d="M7.84977 14.5256C5.68586 18.9985 3.66739 20.9229 1.70973 20.1857C-0.38358 19.3975 -0.423743 14.4413 1.56245 9.05934C3.54864 3.67742 6.64968 -0.13527 8.90237 0.69608C10.3675 1.2368 10.6964 3.92958 10.1497 7.34428L10.1565 7.34655C9.91653 8.96655 9.97091 9.50744 10.1852 9.80744C10.4852 10.2274 10.9602 10.3324 11.1602 10.3324C12.1202 10.2724 12.9994 9.23683 13.2641 8.65203L13.3357 8.50699C14.5383 5.93484 17.7311 -0.0702919 20.361 0.838914C22.4439 1.55901 22.3247 6.58234 20.5083 11.9653C17.9747 18.7323 15.1247 20.9073 13.1684 20.3286C11.3268 19.7838 11.1723 16.646 12.0327 12.7449C12.1898 11.6418 11.9301 11.149 11.7602 11.0074C11.4002 10.7074 10.9446 10.6605 10.6352 10.7074C9.58166 10.8671 8.61982 12.9126 8.02053 14.187C7.96309 14.3092 7.90898 14.4243 7.85844 14.5299L7.84977 14.5256Z" fill="#131115"/>
</g>
</svg>
