<svg width="16" height="16" viewBox="0 0 24 24" fill="none" xmlns="http://www.w3.org/2000/svg">
<g id="Logo_wb" clip-path="url(#clip0_997_10338)">
<path id="Subtract" fill-rule="evenodd" clip-rule="evenodd" d="M8.40337 2.85609C8.46152 1.50414 7.19339 1.0971 6.64914 1.02913C4.99714 0.822826 4.64946 0.978305 5.0004 1.76006C5.17761 2.15482 5.49094 2.55031 5.49094 2.55031C5.49094 2.55031 6.07031 3.27263 5.73223 3.49441C3.46754 4.98006 1.91987 8.75974 1.62321 9.75799C-0.689317 17.4627 2.6456 18.7984 5.24811 19.3531C6.3875 19.596 7.21857 19.3325 8.01341 19.0806C8.59096 18.8975 9.14939 18.7204 9.79308 18.7481C10.3971 18.7741 11.2197 18.9467 12.1429 19.1404C13.8606 19.5007 15.9265 19.9341 17.5805 19.6321C20.1234 19.1678 21.9879 17.4934 22.5579 16.0557C24.5142 11.1214 21.2222 6.50688 19.1588 4.33958C18.9186 3.88199 19.1227 3.70499 19.3352 3.52066C19.3884 3.47455 19.4421 3.42798 19.4895 3.37645C19.526 3.33682 19.5611 3.29878 19.5948 3.26217C20.1232 2.68945 20.3287 2.46669 20.3481 2.01547C20.275 1.00441 18.2718 0.679788 16.7639 0.928955C16.2162 1.01946 15.6267 1.35602 15.1059 1.6533C14.8031 1.82614 14.5236 1.98571 14.2891 2.07591C13.8582 2.24165 13.4824 2.22232 13.1603 2.20575C12.9835 2.19666 12.823 2.1884 12.6784 2.21202C11.4982 2.40481 10.6971 3.22766 10.4423 3.65523C9.91021 4.57286 9.80979 5.72739 10.1899 6.6204C10.7883 8.02644 11.1954 10.3866 11.2088 10.9598C11.2772 13.8814 9.63288 14.8589 8.63028 15.1738C8.01277 15.3677 7.19529 15.2113 6.82467 14.9927C5.29594 14.0909 4.83685 12.6166 4.87752 11.6712C4.99423 8.95808 6.36869 6.26759 6.99941 5.60649C7.72235 4.64822 8.36306 3.79303 8.40337 2.85609ZM15.2524 8.89519C15.7199 8.89519 16.0514 8.47478 16.0514 8.07239C16.0514 7.67001 15.6937 7.07689 15.2524 7.07689C14.8111 7.07689 14.4533 7.67001 14.4533 8.07239C14.4533 8.47478 14.7849 8.89519 15.2524 8.89519Z" fill="#131115"/>
<path id="Union" fill-rule="evenodd" clip-rule="evenodd" d="M9.25481 21.2425C9.23481 21.2271 9.21344 21.2128 9.19071 21.1997L6.78436 19.8104C6.40711 19.5926 5.93555 19.8648 5.93555 20.3004L5.93555 23.079C5.93555 23.5147 6.40711 23.7869 6.78436 23.5691L9.19071 22.1798C9.21344 22.1667 9.23481 22.1524 9.25481 22.137C9.2748 22.1524 9.29617 22.1667 9.3189 22.1798L11.7253 23.5691C12.1025 23.7869 12.5741 23.5147 12.5741 23.079V20.3004C12.5741 19.8648 12.1025 19.5926 11.7253 19.8104L9.3189 21.1997C9.29617 21.2128 9.2748 21.2271 9.25481 21.2425Z" fill="#131115"/>
<path id="Union_2" fill-rule="evenodd" clip-rule="evenodd" d="M6.06707 11.5306C6.4351 11.1041 6.97075 11.0714 7.49609 11.0689V11.069C8.00896 11.0717 8.55724 11.1053 8.92426 11.5307C9.24248 11.8995 9.66119 12.6572 9.24244 13.5211C8.88735 14.2537 8.25611 14.6207 7.49532 14.658V14.6572C6.73385 14.6119 6.09421 14.1738 5.7489 13.521C5.43344 12.9247 5.54863 12.1315 6.06707 11.5306Z" fill="#131115"/>
</g>
<defs>
<clipPath id="clip0_997_10338">
<rect width="24" height="24" fill="white"/>
</clipPath>
</defs>
</svg>
