<svg width="30" height="30" viewBox="0 0 30 30" fill="none" xmlns="http://www.w3.org/2000/svg">
<g id="BookmarkSimple" clip-path="url(#clip0_1658_6232)">
<path id="Vector" d="M21.5625 3.75H8.4375C7.94022 3.75 7.46331 3.94754 7.11167 4.29917C6.76004 4.65081 6.5625 5.12772 6.5625 5.625V26.25C6.56258 26.4173 6.60744 26.5815 6.69241 26.7257C6.77738 26.8698 6.89938 26.9886 7.04573 27.0696C7.19209 27.1507 7.35747 27.1911 7.52472 27.1867C7.69198 27.1823 7.855 27.1332 7.99687 27.0445L15 22.6676L22.0043 27.0445C22.1462 27.1329 22.3091 27.1817 22.4761 27.186C22.6432 27.1903 22.8084 27.1498 22.9545 27.0687C23.1007 26.9877 23.2226 26.8691 23.3075 26.7251C23.3924 26.5812 23.4373 26.4171 23.4375 26.25V5.625C23.4375 5.12772 23.24 4.65081 22.8883 4.29917C22.5367 3.94754 22.0598 3.75 21.5625 3.75Z" fill="#131115" fill-opacity="0.3"/>
</g>
<defs>
<clipPath id="clip0_1658_6232">
<rect width="30" height="30" fill="white"/>
</clipPath>
</defs>
</svg>
