<svg width="24" height="25" viewBox="0 0 24 25" fill="none" xmlns="http://www.w3.org/2000/svg">
<g id="Camera" clip-path="url(#clip0_976_13360)">
<path id="Vector" d="M19.5 5.75H16.9012L15.6234 3.83375C15.555 3.73114 15.4623 3.647 15.3535 3.58879C15.2448 3.53057 15.1233 3.50007 15 3.5H9C8.87665 3.50007 8.75522 3.53057 8.64648 3.58879C8.53773 3.647 8.44502 3.73114 8.37656 3.83375L7.09781 5.75H4.5C3.90326 5.75 3.33097 5.98705 2.90901 6.40901C2.48705 6.83097 2.25 7.40326 2.25 8V18.5C2.25 19.0967 2.48705 19.669 2.90901 20.091C3.33097 20.5129 3.90326 20.75 4.5 20.75H19.5C20.0967 20.75 20.669 20.5129 21.091 20.091C21.5129 19.669 21.75 19.0967 21.75 18.5V8C21.75 7.40326 21.5129 6.83097 21.091 6.40901C20.669 5.98705 20.0967 5.75 19.5 5.75ZM15.375 12.875C15.375 13.5425 15.1771 14.195 14.8062 14.75C14.4354 15.3051 13.9083 15.7376 13.2916 15.9931C12.6749 16.2485 11.9963 16.3154 11.3416 16.1852C10.6869 16.0549 10.0855 15.7335 9.61351 15.2615C9.14151 14.7895 8.82007 14.1881 8.68985 13.5334C8.55962 12.8787 8.62646 12.2001 8.88191 11.5834C9.13735 10.9667 9.56993 10.4396 10.125 10.0688C10.68 9.69794 11.3325 9.5 12 9.5C12.8951 9.5 13.7535 9.85558 14.3865 10.4885C15.0194 11.1214 15.375 11.9799 15.375 12.875Z" fill="#131115"/>
</g>
<defs>
<clipPath id="clip0_976_13360">
<rect width="24" height="24" fill="white" transform="translate(0 0.5)"/>
</clipPath>
</defs>
</svg>
