<svg width="30" height="30" viewBox="0 0 30 30" fill="none" xmlns="http://www.w3.org/2000/svg">
<g id="ListChecks" clip-path="url(#clip0_1658_6216)">
<path id="Vector" d="M23.75 4.5H6.25C5.78587 4.5 5.34075 4.68437 5.01256 5.01256C4.68437 5.34075 4.5 5.78587 4.5 6.25V23.75C4.5 24.2141 4.68437 24.6592 5.01256 24.9874C5.34075 25.3156 5.78587 25.5 6.25 25.5H23.75C24.2141 25.5 24.6592 25.3156 24.9874 24.9874C25.3156 24.6592 25.5 24.2141 25.5 23.75V6.25C25.5 5.78587 25.3156 5.34075 24.9874 5.01256C24.6592 4.68437 24.2141 4.5 23.75 4.5ZM13.8691 17.3691L10.3691 20.8691C10.2878 20.9504 10.1913 21.015 10.0851 21.059C9.97885 21.103 9.86499 21.1257 9.75 21.1257C9.63501 21.1257 9.52115 21.103 9.41493 21.059C9.3087 21.015 9.2122 20.9504 9.13094 20.8691L7.38094 19.1191C7.21675 18.9549 7.12451 18.7322 7.12451 18.5C7.12451 18.2678 7.21675 18.0451 7.38094 17.8809C7.54512 17.7168 7.76781 17.6245 8 17.6245C8.23219 17.6245 8.45488 17.7168 8.61906 17.8809L9.75 19.013L12.6309 16.1309C12.7951 15.9668 13.0178 15.8745 13.25 15.8745C13.4822 15.8745 13.7049 15.9668 13.8691 16.1309C14.0332 16.2951 14.1255 16.5178 14.1255 16.75C14.1255 16.9822 14.0332 17.2049 13.8691 17.3691ZM13.8691 10.3691L10.3691 13.8691C10.2878 13.9504 10.1913 14.015 10.0851 14.059C9.97885 14.103 9.86499 14.1257 9.75 14.1257C9.63501 14.1257 9.52115 14.103 9.41493 14.059C9.3087 14.015 9.2122 13.9504 9.13094 13.8691L7.38094 12.1191C7.29964 12.0378 7.23515 11.9413 7.19116 11.835C7.14716 11.7288 7.12451 11.615 7.12451 11.5C7.12451 11.2678 7.21675 11.0451 7.38094 10.8809C7.54512 10.7168 7.76781 10.6245 8 10.6245C8.23219 10.6245 8.45488 10.7168 8.61906 10.8809L9.75 12.013L12.6309 9.13094C12.7951 8.96675 13.0178 8.87451 13.25 8.87451C13.4822 8.87451 13.7049 8.96675 13.8691 9.13094C14.0332 9.29512 14.1255 9.51781 14.1255 9.75C14.1255 9.98219 14.0332 10.2049 13.8691 10.3691ZM22 19.375H16.75C16.5179 19.375 16.2954 19.2828 16.1313 19.1187C15.9672 18.9546 15.875 18.7321 15.875 18.5C15.875 18.2679 15.9672 18.0454 16.1313 17.8813C16.2954 17.7172 16.5179 17.625 16.75 17.625H22C22.2321 17.625 22.4546 17.7172 22.6187 17.8813C22.7828 18.0454 22.875 18.2679 22.875 18.5C22.875 18.7321 22.7828 18.9546 22.6187 19.1187C22.4546 19.2828 22.2321 19.375 22 19.375ZM22 12.375H16.75C16.5179 12.375 16.2954 12.2828 16.1313 12.1187C15.9672 11.9546 15.875 11.7321 15.875 11.5C15.875 11.2679 15.9672 11.0454 16.1313 10.8813C16.2954 10.7172 16.5179 10.625 16.75 10.625H22C22.2321 10.625 22.4546 10.7172 22.6187 10.8813C22.7828 11.0454 22.875 11.2679 22.875 11.5C22.875 11.7321 22.7828 11.9546 22.6187 12.1187C22.4546 12.2828 22.2321 12.375 22 12.375Z" fill="#131115" fill-opacity="0.3"/>
</g>
<defs>
<clipPath id="clip0_1658_6216">
<rect width="30" height="30" fill="white"/>
</clipPath>
</defs>
</svg>
