<svg width="640" height="120" viewBox="0 0 640 120" fill="none" xmlns="http://www.w3.org/2000/svg">
<rect x="0.5" y="0.5" width="639" height="119" rx="3.5" fill="#FFE8D8"/>
<rect x="0.5" y="0.5" width="639" height="119" rx="3.5" stroke="#F1853C" stroke-dasharray="6 6"/>
<g clip-path="url(#clip0_1015_11769)">
<path d="M331.111 61H308.923C308.678 60.9993 308.444 60.9019 308.271 60.7291C308.098 60.5562 308.001 60.322 308 60.0775V45H331C331.265 45 331.52 45.1054 331.707 45.2929C331.895 45.4804 332 45.7348 332 46V60.1112C332 60.347 331.906 60.573 331.74 60.7397C331.573 60.9064 331.347 61 331.111 61Z" stroke="#F1853C" stroke-width="1.5" stroke-linecap="round" stroke-linejoin="round"/>
<path d="M308 45V42C308 41.7348 308.105 41.4804 308.293 41.2929C308.48 41.1054 308.735 41 309 41H315.586C315.851 41.0001 316.105 41.1053 316.292 41.2925L320 45" stroke="#F1853C" stroke-width="1.5" stroke-linecap="round" stroke-linejoin="round"/>
<path d="M317 53H323" stroke="#F1853C" stroke-width="1.5" stroke-linecap="round" stroke-linejoin="round"/>
<path d="M320 50V56" stroke="#F1853C" stroke-width="1.5" stroke-linecap="round" stroke-linejoin="round"/>
</g>
<path d="M297.293 75.9766C298.676 75.9648 299.748 76.7676 299.977 77.9453H302.027V75.4961H303.141V81.1328H302.027V78.8594H299.982C299.766 80.0664 298.688 80.875 297.293 80.875C295.688 80.875 294.533 79.8613 294.539 78.4141C294.533 76.9844 295.688 75.9648 297.293 75.9766ZM295.605 78.4141C295.6 79.3105 296.303 79.9375 297.293 79.9375C298.266 79.9375 298.957 79.3105 298.957 78.4141C298.957 77.5117 298.266 76.8965 297.293 76.9023C296.303 76.8965 295.6 77.5117 295.605 78.4141ZM296.297 85.8672V81.6367H297.398V82.8555H302.027V81.6367H303.141V85.8672H296.297ZM297.398 84.9531H302.027V83.7344H297.398V84.9531ZM314.367 83.8047V84.7422H304.758V83.8047H308.988V81.9648H305.93V78.625H312.094V77.1484H305.906V76.2344H313.195V79.5156H307.031V81.0508H313.441V81.9648H310.09V83.8047H314.367ZM323.637 80.4766V81.3906H316.324V76.4336H323.543V77.3477H317.426V80.4766H323.637ZM315.129 84.6133V83.6875H324.738V84.6133H315.129ZM333.68 75.4961V79.75H335.367V80.6758H333.68V85.9961H332.578V75.4961H333.68ZM325.441 78.0508V77.1367H328.031V75.6367H329.145V77.1367H331.664V78.0508H325.441ZM325.98 81.2617C325.98 79.832 327.082 78.8242 328.594 78.8242C330.1 78.8242 331.201 79.832 331.207 81.2617C331.201 82.7031 330.1 83.7051 328.594 83.7109C327.082 83.7051 325.98 82.7031 325.98 81.2617ZM327.047 81.2617C327.041 82.1758 327.697 82.7852 328.594 82.7734C329.484 82.7852 330.135 82.1758 330.141 81.2617C330.135 80.3652 329.484 79.7441 328.594 79.7383C327.697 79.7441 327.041 80.3652 327.047 81.2617ZM344.602 75.4961V85.9961H343.477V75.4961H344.602ZM335.977 83.1836C338.766 81.8535 340.131 79.9609 340.348 77.5117H336.48V76.6211H341.473C341.473 79.6973 340.166 82.3574 336.562 84.0859L335.977 83.1836Z" fill="#F1853C"/>
<defs>
<clipPath id="clip0_1015_11769">
<rect width="32" height="32" fill="white" transform="translate(304 35)"/>
</clipPath>
</defs>
</svg>
