<svg width="145" height="52" viewBox="0 0 145 52" fill="none" xmlns="http://www.w3.org/2000/svg">
<rect y="0.5" width="145" height="51" rx="25.5" fill="#131115" fill-opacity="0.8"/>
<path d="M41.7578 22.5938C41.75 24.7578 42.9062 27.2578 45.2422 28.3438L44.1328 29.9062C42.5469 29.1797 41.4219 27.7266 40.7812 26.0234C40.1484 27.8984 38.9766 29.4922 37.3359 30.2656L36.1797 28.6875C38.5469 27.5859 39.7422 24.9453 39.7578 22.5938V21.7188H36.7422V20.0938H44.6172V21.7188H41.7578V22.5938ZM45.7266 32.9375V18.7188H47.7266V24.1406H49.8203V25.8125H47.7266V32.9375H45.7266ZM54.8984 22.2969C54.8906 24.6016 55.5312 26.9766 57.4766 28.2188L56.3984 29.7656C55.1641 29.0234 54.3906 27.7891 53.9375 26.3359C53.4297 27.9453 52.5781 29.2969 51.2891 30.0781L50.0703 28.6094C52.1797 27.3047 52.9609 24.7969 52.9609 22.3906V19.9375H54.8984V22.2969ZM55.9766 25.1406V23.5156H57.8203V18.9219H59.6797V32.2812H57.8203V25.1406H55.9766ZM60.7578 32.9375V18.7188H62.6641V32.9375H60.7578ZM76.0703 18.7188V32.9375H74.0547V18.7188H76.0703ZM64.4609 22.4531V20.8594H67.6953V18.9062H69.7266V20.8594H72.9609V22.4531H64.4609ZM65.0703 26.625C65.0703 24.6406 66.6328 23.2266 68.7422 23.2344C70.8438 23.2266 72.3984 24.6406 72.3984 26.625C72.3984 28.6094 70.8438 30.0078 68.7422 30.0156C66.6328 30.0078 65.0703 28.6094 65.0703 26.625ZM66.9766 26.625C66.9688 27.7266 67.7031 28.3828 68.7422 28.375C69.7656 28.3828 70.4922 27.7266 70.4922 26.625C70.4922 25.5312 69.7656 24.8594 68.7422 24.8438C67.7031 24.8594 66.9688 25.5312 66.9766 26.625ZM94.6953 29.6562V31.2812H81.6797V29.6562H87.1641V27.0312H83.0547V19.625H85.0547V21.8281H91.2578V19.625H93.2422V27.0312H89.1484V29.6562H94.6953ZM85.0547 25.4375H91.2578V23.4219H85.0547V25.4375ZM107.461 18.7188V32.9375H105.445V18.7188H107.461ZM95.5547 28.9062C99.2266 27.1719 100.844 24.9219 101.164 21.7656H96.3203V20.2031H103.195C103.188 24.5156 101.68 28.1016 96.6016 30.5L95.5547 28.9062Z" fill="white"/>
</svg>
