<svg width="51" height="51" viewBox="0 0 51 51" fill="none" xmlns="http://www.w3.org/2000/svg">
<g clip-path="url(#clip0_1259_13806)">
<circle cx="25.5" cy="25.5" r="24.5893" fill="white" stroke="#EDE5E0" stroke-width="1.82143"/>
<g clip-path="url(#clip1_1259_13806)">
<path d="M26 34.25C26 34.25 17.0625 29.4375 17.0625 23.7656C17.0625 22.5349 17.5514 21.3545 18.4217 20.4842C19.292 19.6139 20.4724 19.125 21.7031 19.125C23.6445 19.125 25.3073 20.1829 26 21.875C26.6927 20.1829 28.3555 19.125 30.2969 19.125C31.5276 19.125 32.708 19.6139 33.5783 20.4842C34.4486 21.3545 34.9375 22.5349 34.9375 23.7656C34.9375 29.4375 26 34.25 26 34.25Z" stroke="#131115" stroke-width="1.5" stroke-linecap="round" stroke-linejoin="round"/>
</g>
</g>
<defs>
<clipPath id="clip0_1259_13806">
<rect width="51" height="51" fill="white"/>
</clipPath>
<clipPath id="clip1_1259_13806">
<rect width="22" height="22" fill="white" transform="translate(15 15)"/>
</clipPath>
</defs>
</svg>
