<svg width="52" height="52" viewBox="0 0 52 52" fill="none" xmlns="http://www.w3.org/2000/svg">
<g clip-path="url(#clip0_1259_13817)">
<circle cx="26" cy="26" r="24.5893" fill="white" stroke="#EDE5E0" stroke-width="1.82143"/>
<g clip-path="url(#clip1_1259_13817)">
<path d="M31.9282 34.75L26.2854 31.2232L20.6426 34.75V19.2322C20.6426 19.0451 20.7169 18.8657 20.8492 18.7334C20.9815 18.6012 21.1609 18.5269 21.3479 18.5269H31.2229C31.4099 18.5269 31.5894 18.6012 31.7216 18.7334C31.8539 18.8657 31.9282 19.0451 31.9282 19.2322V34.75Z" stroke="#FD8B3E" stroke-width="1.41071" stroke-linecap="round" stroke-linejoin="round"/>
<g clip-path="url(#clip2_1259_13817)">
<path d="M31.2231 17.8218H21.3482C20.9741 17.8218 20.6152 17.9704 20.3507 18.235C20.0861 18.4995 19.9375 18.8583 19.9375 19.2325V34.7502C19.9376 34.8761 19.9713 34.9997 20.0352 35.1081C20.0992 35.2166 20.191 35.3059 20.3011 35.3669C20.4112 35.4279 20.5356 35.4583 20.6615 35.455C20.7873 35.4517 20.9099 35.4147 21.0167 35.348L26.2857 32.0549L31.5555 35.348C31.6623 35.4145 31.7848 35.4513 31.9105 35.4545C32.0362 35.4577 32.1605 35.4272 32.2705 35.3662C32.3805 35.3053 32.4721 35.216 32.536 35.1077C32.5999 34.9994 32.6337 34.876 32.6339 34.7502V19.2325C32.6339 18.8583 32.4852 18.4995 32.2207 18.235C31.9561 17.9704 31.5973 17.8218 31.2231 17.8218Z" fill="#FD8B3E"/>
</g>
</g>
</g>
<defs>
<clipPath id="clip0_1259_13817">
<rect width="51" height="51" fill="white" transform="translate(0.5 0.5)"/>
</clipPath>
<clipPath id="clip1_1259_13817">
<rect width="22.5713" height="22.5713" fill="white" transform="translate(15 15)"/>
</clipPath>
<clipPath id="clip2_1259_13817">
<rect width="22.5713" height="22.5713" fill="white" transform="translate(15 15)"/>
</clipPath>
</defs>
</svg>
