<svg width="51" height="51" viewBox="0 0 51 51" fill="none" xmlns="http://www.w3.org/2000/svg">
<g clip-path="url(#clip0_1259_13801)">
<circle cx="25.5" cy="25.5" r="24.5893" fill="white" stroke="#EDE5E0" stroke-width="1.82143"/>
<g clip-path="url(#clip1_1259_13801)">
<path d="M35.625 23.7656C35.625 29.7812 26.7055 34.6505 26.3257 34.8516C26.2256 34.9054 26.1137 34.9336 26 34.9336C25.8863 34.9336 25.7744 34.9054 25.6743 34.8516C25.2945 34.6505 16.375 29.7812 16.375 23.7656C16.3766 22.353 16.9385 20.9987 17.9373 19.9998C18.9362 19.001 20.2905 18.4391 21.7031 18.4375C23.4777 18.4375 25.0315 19.2006 26 20.4905C26.9685 19.2006 28.5223 18.4375 30.2969 18.4375C31.7095 18.4391 33.0638 19.001 34.0627 19.9998C35.0615 20.9987 35.6234 22.353 35.625 23.7656Z" fill="#FD8B3E"/>
</g>
</g>
<defs>
<clipPath id="clip0_1259_13801">
<rect width="51" height="51" fill="white"/>
</clipPath>
<clipPath id="clip1_1259_13801">
<rect width="22" height="22" fill="white" transform="translate(15 15)"/>
</clipPath>
</defs>
</svg>
