<svg width="24" height="24" viewBox="0 0 24 24" fill="none" xmlns="http://www.w3.org/2000/svg">
<g id="Logo_wb">
<path id="Subtract" fill-rule="evenodd" clip-rule="evenodd" d="M8.40141 2.85629C8.45957 1.50434 7.19144 1.0973 6.64719 1.02933C4.99519 0.823025 4.64751 0.978503 4.99845 1.76026C5.17566 2.15502 5.48898 2.5505 5.48898 2.5505C5.48898 2.5505 6.06835 3.27283 5.73027 3.49461C3.46558 4.98026 1.91792 8.75993 1.62126 9.75818C-0.69127 17.4629 2.64364 18.7986 5.24615 19.3533C6.38555 19.5962 7.21662 19.3327 8.01146 19.0808C8.58901 18.8977 9.14744 18.7206 9.79113 18.7483C10.3952 18.7743 11.2178 18.9469 12.1409 19.1406C13.8586 19.5009 15.9245 19.9343 17.5786 19.6323C20.1215 19.168 21.986 17.4936 22.556 16.0559C24.5122 11.1216 21.2203 6.50708 19.1569 4.33978C18.9166 3.88219 19.1207 3.70518 19.3333 3.52086C19.3864 3.47475 19.4402 3.42818 19.4876 3.37664C19.524 3.33702 19.5591 3.29898 19.5929 3.26237C20.1212 2.68965 20.3267 2.46689 20.3461 2.01567C20.273 1.00461 18.2698 0.679986 16.762 0.929154C16.2143 1.01966 15.6247 1.35622 15.104 1.6535C14.8012 1.82634 14.5217 1.98591 14.2872 2.0761C13.8563 2.24184 13.4804 2.22251 13.1583 2.20595C12.9816 2.19686 12.821 2.1886 12.6765 2.21222C11.4963 2.405 10.6951 3.22786 10.4404 3.65543C9.90826 4.57306 9.80784 5.72758 10.1879 6.62059C10.7864 8.02664 11.1934 10.3868 11.2068 10.96C11.2752 13.8816 9.63093 14.8591 8.62833 15.174C8.01082 15.3679 7.19334 15.2115 6.82272 14.9929C5.29398 14.0911 4.8349 12.6168 4.87556 11.6714C4.99228 8.95828 6.36674 6.26779 6.99746 5.60669C7.7204 4.64842 8.36111 3.79323 8.40141 2.85629ZM15.2502 8.89539C15.7177 8.89539 16.0492 8.47498 16.0492 8.07259C16.0492 7.67021 15.6915 7.07709 15.2502 7.07709C14.8089 7.07709 14.4511 7.67021 14.4511 8.07259C14.4511 8.47498 14.7827 8.89539 15.2502 8.89539Z" fill="#131115" fill-opacity="0.3"/>
<path id="Union" fill-rule="evenodd" clip-rule="evenodd" d="M9.25287 21.2427C9.23287 21.2273 9.2115 21.213 9.18876 21.1999L6.78241 19.8105C6.40516 19.5927 5.93359 19.865 5.93359 20.3006L5.93359 23.0792C5.93359 23.5148 6.40516 23.7871 6.78241 23.5693L9.18875 22.18C9.2115 22.1668 9.23287 22.1525 9.25287 22.1372C9.27287 22.1525 9.29424 22.1668 9.31698 22.18L11.7233 23.5693C12.1006 23.7871 12.5721 23.5148 12.5721 23.0792V20.3006C12.5721 19.865 12.1006 19.5927 11.7233 19.8105L9.31698 21.1999C9.29424 21.213 9.27287 21.2273 9.25287 21.2427Z" fill="#131115" fill-opacity="0.3"/>
<path id="Union_2" fill-rule="evenodd" clip-rule="evenodd" d="M6.06707 11.5306C6.4351 11.104 6.97075 11.0713 7.49609 11.0688V14.6572C6.73428 14.6121 6.09433 14.174 5.7489 13.521C5.43344 12.9247 5.54863 12.1314 6.06707 11.5306ZM8.92514 11.5307C8.55792 11.1051 8.00925 11.0716 7.49614 11.0689V14.6579C8.25695 14.6207 8.88822 14.2537 9.24331 13.5211C9.66206 12.6571 9.24336 11.8994 8.92514 11.5307Z" fill="#131115" fill-opacity="0.3"/>
</g>
</svg>
