<svg width="42" height="42" viewBox="0 0 42 42" fill="none" xmlns="http://www.w3.org/2000/svg">
<g clip-path="url(#clip0_1074_4239)">
<circle cx="21" cy="21" r="21" fill="#131115" fill-opacity="0.8"/>
<g clip-path="url(#clip1_1074_4239)">
<path d="M32.375 21.0002C32.3754 22.9641 31.8674 24.8946 30.9004 26.6039C29.9333 28.3132 28.5403 29.7429 26.8567 30.7541C25.1732 31.7652 23.2565 32.3233 21.2933 32.3739C19.3301 32.4246 17.3872 31.966 15.6537 31.043L11.9295 32.2844C11.6212 32.3873 11.2903 32.4022 10.974 32.3275C10.6576 32.2529 10.3683 32.0916 10.1385 31.8618C9.90863 31.6319 9.74734 31.3426 9.67268 31.0263C9.59803 30.7099 9.61295 30.379 9.71578 30.0707L10.9572 26.3465C10.1458 24.8209 9.69259 23.1306 9.632 21.4038C9.5714 19.677 9.90501 17.959 10.6075 16.3804C11.31 14.8017 12.3628 13.4038 13.6862 12.2929C15.0096 11.1819 16.5687 10.387 18.2451 9.96852C19.9216 9.55005 21.6713 9.519 23.3616 9.87773C25.0518 10.2365 26.6381 10.9755 28.0001 12.0389C29.3621 13.1022 30.4639 14.4618 31.2219 16.0146C31.9799 17.5673 32.3743 19.2723 32.375 21.0002Z" fill="white"/>
</g>
</g>
<defs>
<clipPath id="clip0_1074_4239">
<rect width="42" height="42" fill="white"/>
</clipPath>
<clipPath id="clip1_1074_4239">
<rect width="28" height="28" fill="white" transform="translate(7 7)"/>
</clipPath>
</defs>
</svg>
