<svg width="30" height="30" viewBox="0 0 30 30" fill="none" xmlns="http://www.w3.org/2000/svg">
<g id="Note" clip-path="url(#clip0_1658_6226)">
<path id="Vector" d="M24.375 3.75H5.625C5.12772 3.75 4.65081 3.94754 4.29917 4.29917C3.94754 4.65081 3.75 5.12772 3.75 5.625V24.375C3.75 24.8723 3.94754 25.3492 4.29917 25.7008C4.65081 26.0525 5.12772 26.25 5.625 26.25H18.3621C18.6084 26.2504 18.8523 26.202 19.0798 26.1077C19.3072 26.0134 19.5138 25.8749 19.6875 25.7004L25.7004 19.6875C25.8749 19.5138 26.0134 19.3072 26.1077 19.0798C26.202 18.8523 26.2504 18.6084 26.25 18.3621V5.625C26.25 5.12772 26.0525 4.65081 25.7008 4.29917C25.3492 3.94754 24.8723 3.75 24.375 3.75ZM11.25 10.3125H18.75C18.9986 10.3125 19.2371 10.4113 19.4129 10.5871C19.5887 10.7629 19.6875 11.0014 19.6875 11.25C19.6875 11.4986 19.5887 11.7371 19.4129 11.9129C19.2371 12.0887 18.9986 12.1875 18.75 12.1875H11.25C11.0014 12.1875 10.7629 12.0887 10.5871 11.9129C10.4113 11.7371 10.3125 11.4986 10.3125 11.25C10.3125 11.0014 10.4113 10.7629 10.5871 10.5871C10.7629 10.4113 11.0014 10.3125 11.25 10.3125ZM15 19.6875H11.25C11.0014 19.6875 10.7629 19.5887 10.5871 19.4129C10.4113 19.2371 10.3125 18.9986 10.3125 18.75C10.3125 18.5014 10.4113 18.2629 10.5871 18.0871C10.7629 17.9113 11.0014 17.8125 11.25 17.8125H15C15.2486 17.8125 15.4871 17.9113 15.6629 18.0871C15.8387 18.2629 15.9375 18.5014 15.9375 18.75C15.9375 18.9986 15.8387 19.2371 15.6629 19.4129C15.4871 19.5887 15.2486 19.6875 15 19.6875ZM11.25 15.9375C11.0014 15.9375 10.7629 15.8387 10.5871 15.6629C10.4113 15.4871 10.3125 15.2486 10.3125 15C10.3125 14.7514 10.4113 14.5129 10.5871 14.3371C10.7629 14.1613 11.0014 14.0625 11.25 14.0625H18.75C18.9986 14.0625 19.2371 14.1613 19.4129 14.3371C19.5887 14.5129 19.6875 14.7514 19.6875 15C19.6875 15.2486 19.5887 15.4871 19.4129 15.6629C19.2371 15.8387 18.9986 15.9375 18.75 15.9375H11.25ZM18.75 23.9871V18.75H23.9883L18.75 23.9871Z" fill="#131115" fill-opacity="0.3"/>
</g>
<defs>
<clipPath id="clip0_1658_6226">
<rect width="30" height="30" fill="white"/>
</clipPath>
</defs>
</svg>
