<svg width="30" height="31" viewBox="0 0 30 31" fill="none" xmlns="http://www.w3.org/2000/svg">
<g id="SignOut" clip-path="url(#clip0_1658_1246)">
<path id="Vector" d="M14.0625 25.8125C14.0625 26.0611 13.9637 26.2996 13.7879 26.4754C13.6121 26.6512 13.3736 26.75 13.125 26.75H5.625C5.37636 26.75 5.1379 26.6512 4.96209 26.4754C4.78627 26.2996 4.6875 26.0611 4.6875 25.8125V5.1875C4.6875 4.93886 4.78627 4.7004 4.96209 4.52459C5.1379 4.34877 5.37636 4.25 5.625 4.25H13.125C13.3736 4.25 13.6121 4.34877 13.7879 4.52459C13.9637 4.7004 14.0625 4.93886 14.0625 5.1875C14.0625 5.43614 13.9637 5.6746 13.7879 5.85041C13.6121 6.02623 13.3736 6.125 13.125 6.125H6.5625V24.875H13.125C13.3736 24.875 13.6121 24.9738 13.7879 25.1496C13.9637 25.3254 14.0625 25.5639 14.0625 25.8125ZM26.9133 14.8367L22.2258 10.1492C22.0947 10.018 21.9276 9.92855 21.7456 9.89232C21.5636 9.85608 21.375 9.87465 21.2036 9.94567C21.0322 10.0167 20.8858 10.137 20.7828 10.2913C20.6798 10.4456 20.6249 10.627 20.625 10.8125V14.5625H13.125C12.8764 14.5625 12.6379 14.6613 12.4621 14.8371C12.2863 15.0129 12.1875 15.2514 12.1875 15.5C12.1875 15.7486 12.2863 15.9871 12.4621 16.1629C12.6379 16.3387 12.8764 16.4375 13.125 16.4375H20.625V20.1875C20.6249 20.373 20.6798 20.5544 20.7828 20.7087C20.8858 20.863 21.0322 20.9833 21.2036 21.0543C21.375 21.1254 21.5636 21.1439 21.7456 21.1077C21.9276 21.0714 22.0947 20.982 22.2258 20.8508L26.9133 16.1633C27.0004 16.0762 27.0696 15.9728 27.1168 15.859C27.164 15.7452 27.1882 15.6232 27.1882 15.5C27.1882 15.3768 27.164 15.2548 27.1168 15.141C27.0696 15.0272 27.0004 14.9238 26.9133 14.8367Z" fill="#DC9BDD"/>
</g>
<defs>
<clipPath id="clip0_1658_1246">
<rect width="30" height="30" fill="white" transform="translate(0 0.5)"/>
</clipPath>
</defs>
</svg>
