<svg width="16" height="16" viewBox="0 0 16 16" fill="none" xmlns="http://www.w3.org/2000/svg">
<g id="Logo_wb" clip-path="url(#clip0_1349_572)">
<path id="Subtract" fill-rule="evenodd" clip-rule="evenodd" d="M5.60143 1.90452C5.6402 1.00322 4.79478 0.731856 4.43195 0.686545C3.33062 0.549009 3.09883 0.652661 3.33278 1.17383C3.45093 1.43701 3.65981 1.70066 3.65981 1.70066C3.65981 1.70066 4.04606 2.18221 3.82067 2.33007C2.31088 3.3205 1.2791 5.84028 1.08133 6.50578C-0.460358 11.6423 1.76292 12.5327 3.49792 12.9025C4.25752 13.0644 4.81157 12.8888 5.34146 12.7208C5.7265 12.5988 6.09878 12.4808 6.52791 12.4992C6.9306 12.5165 7.47899 12.6316 8.09442 12.7607C9.23958 13.0009 10.6168 13.2899 11.7195 13.0885C13.4148 12.779 14.6578 11.6628 15.0378 10.7043C16.342 7.41474 14.1473 4.33838 12.7717 2.89351C12.6116 2.58845 12.7476 2.47045 12.8893 2.34757C12.9248 2.31682 12.9606 2.28578 12.9922 2.25142C13.0165 2.225 13.0399 2.19964 13.0624 2.17523C13.4146 1.79342 13.5516 1.64492 13.5646 1.3441C13.5158 0.670066 12.1804 0.45365 11.1752 0.619761C10.81 0.6801 10.417 0.904473 10.0698 1.10266C9.86794 1.21789 9.6816 1.32426 9.52527 1.3844C9.23801 1.49489 8.98743 1.482 8.77271 1.47096C8.65488 1.4649 8.54785 1.45939 8.45147 1.47514C7.66467 1.60366 7.13058 2.15223 6.96074 2.43728C6.60599 3.04903 6.53905 3.81871 6.79244 4.41406C7.19141 5.35142 7.46276 6.92484 7.4717 7.30702C7.5173 9.2547 6.42111 9.90638 5.75271 10.1163C5.34103 10.2456 4.79605 10.1413 4.54897 9.99558C3.52981 9.39439 3.22375 8.4115 3.25086 7.78128C3.32867 5.97251 4.24498 4.17885 4.66546 3.73812C5.14742 3.09927 5.57456 2.52914 5.60143 1.90452ZM10.1673 5.93058C10.4789 5.93058 10.7 5.65031 10.7 5.38205C10.7 5.11379 10.4615 4.71838 10.1673 4.71838C9.87308 4.71838 9.63459 5.11379 9.63459 5.38205C9.63459 5.65031 9.85561 5.93058 10.1673 5.93058Z" fill="#878787"/>
<path id="Union" fill-rule="evenodd" clip-rule="evenodd" d="M6.16915 14.1621C6.15581 14.1519 6.14157 14.1423 6.12641 14.1336L4.52217 13.2074C4.27067 13.0622 3.9563 13.2437 3.9563 13.5341L3.9563 15.3865C3.9563 15.6769 4.27067 15.8584 4.52217 15.7132L6.12641 14.787C6.14157 14.7782 6.15581 14.7687 6.16915 14.7584C6.18248 14.7687 6.19673 14.7782 6.21189 14.787L7.81612 15.7132C8.06762 15.8584 8.382 15.6769 8.382 15.3865V13.5341C8.382 13.2437 8.06762 13.0622 7.81612 13.2074L6.21189 14.1336C6.19673 14.1423 6.18248 14.1519 6.16915 14.1621Z" fill="#878787"/>
<path id="Union_2" fill-rule="evenodd" clip-rule="evenodd" d="M4.04463 7.62129C4.28999 7.33694 4.64709 7.31514 4.99731 7.31348V9.7057C4.48944 9.67565 4.06281 9.38356 3.83252 8.94824C3.62221 8.55069 3.69901 8.02186 4.04463 7.62129ZM5.95001 7.62141C5.7052 7.33768 5.33942 7.31536 4.99735 7.31361V9.70627C5.50455 9.68143 5.9254 9.43676 6.16213 8.94836C6.44129 8.3724 6.16216 7.86725 5.95001 7.62141Z" fill="#878787"/>
</g>
<defs>
<clipPath id="clip0_1349_572">
<rect width="16" height="16" fill="white"/>
</clipPath>
</defs>
</svg>
