<svg width="52" height="15" viewBox="0 0 52 15" fill="none" xmlns="http://www.w3.org/2000/svg">
<path fill-rule="evenodd" clip-rule="evenodd" d="M4.56244 2.72302C4.59253 2.02356 3.93644 1.81297 3.65486 1.7778C2.80017 1.67107 2.62029 1.75151 2.80185 2.15596C2.89354 2.3602 3.05564 2.56481 3.05564 2.56481C3.05564 2.56481 3.35539 2.93852 3.18048 3.05327C2.0088 3.82189 1.20808 5.77738 1.0546 6.29384C-0.141828 10.28 1.58355 10.9711 2.93001 11.2581C3.5195 11.3837 3.94947 11.2474 4.36069 11.117C4.6595 11.0223 4.94841 10.9307 5.28144 10.9451C5.59395 10.9585 6.01953 11.0478 6.49714 11.148C7.38584 11.3344 8.45468 11.5587 9.31041 11.4024C10.626 11.1622 11.5907 10.2959 11.8856 9.5521C12.8977 6.99924 11.1945 4.61182 10.127 3.49053C10.0027 3.25378 10.1083 3.16221 10.2182 3.06684C10.2458 3.04299 10.2735 3.01889 10.2981 2.99223C10.3169 2.97173 10.3351 2.95205 10.3526 2.9331C10.6259 2.6368 10.7322 2.52155 10.7423 2.2881C10.7044 1.76502 9.66804 1.59707 8.88795 1.72598C8.60458 1.7728 8.29956 1.94693 8.03014 2.10073C7.87348 2.19015 7.72887 2.27271 7.60755 2.31937C7.38462 2.40512 7.19016 2.39512 7.02353 2.38655C6.93208 2.38185 6.84902 2.37758 6.77422 2.38979C6.16362 2.48954 5.74915 2.91525 5.61734 3.13647C5.34203 3.61122 5.29008 4.20853 5.48673 4.67055C5.79635 5.39799 6.00693 6.61905 6.01387 6.91565C6.04926 8.42715 5.19855 8.93289 4.67984 9.09579C4.36036 9.19613 3.93742 9.11522 3.74567 9.00211C2.95476 8.53556 2.71724 7.77278 2.73828 7.2837C2.79866 5.87999 3.50977 4.48802 3.83608 4.14599C4.21011 3.65021 4.54159 3.20776 4.56244 2.72302ZM8.10609 5.84744C8.34796 5.84744 8.51948 5.62993 8.51948 5.42175C8.51948 5.21356 8.3344 4.9067 8.10609 4.9067C7.87778 4.9067 7.6927 5.21356 7.6927 5.42175C7.6927 5.62993 7.86422 5.84744 8.10609 5.84744Z" fill="#131115" fill-opacity="0.5"/>
<path fill-rule="evenodd" clip-rule="evenodd" d="M3.40954 7.06944C3.60889 6.8384 3.89903 6.82069 4.18359 6.81934V8.76301C3.77095 8.7386 3.42431 8.50128 3.2372 8.14758C3.06632 7.82457 3.12872 7.3949 3.40954 7.06944ZM4.95763 7.06949C4.75872 6.83896 4.46153 6.82082 4.1836 6.8194V8.76343C4.5957 8.74326 4.93763 8.54446 5.12998 8.14763C5.3568 7.67967 5.13 7.26923 4.95763 7.06949Z" fill="#131115" fill-opacity="0.5"/>
<path d="M18.0117 11.5V1.60156H24.1504V2.90039H19.5156V5.89453H23.7129V7.17969H19.5156V11.5H18.0117ZM25.709 11.5V4.07617H27.1719V11.5H25.709ZM25.5176 2.06641C25.5244 1.58789 25.9414 1.20508 26.4473 1.20508C26.9463 1.20508 27.3633 1.58789 27.3633 2.06641C27.3633 2.54492 26.9463 2.93457 26.4473 2.92773C25.9414 2.93457 25.5244 2.54492 25.5176 2.06641ZM30.4121 7.09766V11.5H28.9492V4.07617H30.3574V5.29297H30.4395C30.7881 4.49316 31.5195 3.98047 32.627 3.98047C34.1514 3.98047 35.1631 4.94434 35.1562 6.7832V11.5H33.707V6.96094C33.7002 5.88086 33.1191 5.23828 32.1348 5.23828C31.1299 5.23828 30.4121 5.91504 30.4121 7.09766ZM38.3965 7.09766V11.5H36.9336V4.07617H38.3418V5.29297H38.4238C38.7725 4.49316 39.5039 3.98047 40.6113 3.98047C42.1357 3.98047 43.1475 4.94434 43.1406 6.7832V11.5H41.6914V6.96094C41.6846 5.88086 41.1035 5.23828 40.1191 5.23828C39.1143 5.23828 38.3965 5.91504 38.3965 7.09766ZM45.5469 14.2891C45.2461 14.2822 44.9521 14.2754 44.7676 14.248V13.0312C44.9316 13.0449 45.2188 13.0518 45.4238 13.0586C45.875 13.0518 46.251 13.0244 46.5996 12.0879L46.7773 11.5957L44.0566 4.07617H45.6152L47.4883 9.83203H47.5703L49.4434 4.07617H51.0156L47.9531 12.4844C47.5225 13.6602 46.7705 14.2822 45.5469 14.2891Z" fill="#131115" fill-opacity="0.5"/>
</svg>
