<svg width="30" height="30" viewBox="0 0 30 30" fill="none" xmlns="http://www.w3.org/2000/svg">
<g id="User" clip-path="url(#clip0_1658_6180)">
<path id="Vector" d="M25.4232 24.7228C25.3521 24.846 25.2498 24.9483 25.1266 25.0194C25.0034 25.0905 24.8637 25.1279 24.7214 25.1279H5.27806C5.13592 25.1277 4.99632 25.0902 4.87328 25.019C4.75024 24.9478 4.64809 24.8456 4.57708 24.7224C4.50607 24.5993 4.46871 24.4596 4.46875 24.3175C4.46879 24.1754 4.50622 24.0357 4.57729 23.9126C6.11959 21.2463 8.49634 19.3343 11.2701 18.428C9.89806 17.6112 8.83209 16.3667 8.23587 14.8854C7.63965 13.4042 7.54613 11.7682 7.96969 10.2287C8.39325 8.6892 9.31045 7.33128 10.5805 6.3635C11.8505 5.39572 13.403 4.87158 14.9997 4.87158C16.5965 4.87158 18.149 5.39572 19.419 6.3635C20.689 7.33128 21.6062 8.6892 22.0298 10.2287C22.4534 11.7682 22.3598 13.4042 21.7636 14.8854C21.1674 16.3667 20.1014 17.6112 18.7294 18.428C21.5032 19.3343 23.8799 21.2463 25.4222 23.9126C25.4935 24.0357 25.5311 24.1754 25.5312 24.3176C25.5314 24.4598 25.4942 24.5995 25.4232 24.7228Z" fill="#131115" fill-opacity="0.3"/>
</g>
<defs>
<clipPath id="clip0_1658_6180">
<rect width="30" height="30" fill="white"/>
</clipPath>
</defs>
</svg>
